999
DXF file: b25002_rev_4.dxf
999
Pro/ENGINEER 2013150 by Parametric Technology Corporation
  0
SECTION
  2
HEADER
  9
$EXTMAX
 10
17.0
 20
11.0
 30
0.0
  9
$EXTMIN
 10
0.0
 20
0.0
 30
0.0
  9
$LIMMIN
 10
0.0
 20
0.0
  9
$LIMMAX
 10
17.0
 20
11.0
  9
$VIEWCTR
 10
8.5
 20
5.5
  9
$VIEWSIZE
 40
11.0
  9
$CLAYER
  8
0
  9
$LTSCALE
 40
0.935
  9
$CELTYPE
  6
BYLAYER
  9
$DIMSCALE
 40
1.0
  9
$DIMASZ
 40
0.1875
  9
$DIMEXO
 40
0.0625
  9
$DIMDLI
 40
0.646
  9
$DIMEXE
 40
0.125
  9
$DIMCEN
 40
0.153
  9
$DIMLFAC
 40
1.0
  9
$DIMBLK
  1
_FILLED
  9
$DIMTXT
 40
0.15625
  9
$PDMODE
 70
3
  9
$PDSIZE
 40
0.3125
  9
$TILEMODE
 70
1
  0
ENDSEC
  0
SECTION
  2
TABLES
  0
TABLE
  2
LTYPE
 70
6
  0
LTYPE
  2
BYBLOCK
 70
0
  3

 72
65
 73
0
 40
0.0
  0
LTYPE
  2
BYLAYER
 70
0
  3

 72
65
 73
0
 40
0.0
  0
LTYPE
  2
CONTINUOUS
 70
64
  3
Solid line
 72
65
 73
0
 40
0.0
  0
LTYPE
  2
CENTER
 70
64
  3
____ _ ____ _ ____ _ ____ _ ____ _ ____ _ ____
 72
65
 73
4
 40
0.6
 49
0.375
 49
-0.075
 49
0.075
 49
-0.075
  0
LTYPE
  2
HIDDEN
 70
64
  3
- - - - - - - - - - - - - - - - - - - -
 72
65
 73
2
 40
0.2
 49
0.1
 49
-0.1
  0
LTYPE
  2
PHANTOM
 70
64
  3
_____ _ _ _____ _ _ _____ _ _ _____
 72
65
 73
6
 40
0.8
 49
0.45
 49
-0.05
 49
0.1
 49
-0.05
 49
0.1
 49
-0.05
  0
LTYPE
  2
DOT
 70
64
  3
. . . . . . . . . . . . . . . . . . . .
 72
65
 73
2
 40
0.2
 49
0.1
 49
-0.1
  0
LTYPE
  2
DASHED
 70
64
  3
- - - - - - - - - - - - - - - - - - - -
 72
65
 73
2
 40
0.2
 49
0.1
 49
-0.1
  0
ENDTAB
  0
TABLE
  2
LAYER
 70
36
  0
LAYER
  2
0
 70
0
 62
7
  6
CONTINUOUS
  0
LAYER
  2
DEFAULT_1
 70
0
 62
7
  6
CENTER
  0
LAYER
  2
DEFAULT_2
 70
0
 62
8
  6
HIDDEN
  0
LAYER
  2
DEFAULT_3
 70
0
 62
7
  6
PHANTOM
  0
LAYER
  2
01___PRT_ALL_DTM_PLN
 70
0
 62
7
  6
CONTINUOUS
  0
LAYER
  2
01___PRT_DEF_DTM_PLN
 70
0
 62
7
  6
CONTINUOUS
  0
LAYER
  2
02___PRT_ALL_AXES
 70
0
 62
7
  6
CONTINUOUS
  0
LAYER
  2
03___PRT_ALL_CURVES
 70
0
 62
7
  6
CONTINUOUS
  0
LAYER
  2
04___PRT_ALL_DTM_PNT
 70
0
 62
7
  6
CONTINUOUS
  0
LAYER
  2
05___PRT_ALL_DTM_CSYS
 70
0
 62
7
  6
CONTINUOUS
  0
LAYER
  2
05___PRT_DEF_DTM_CSYS
 70
0
 62
7
  6
CONTINUOUS
  0
LAYER
  2
06___PRT_ALL_SURFS
 70
0
 62
7
  6
CONTINUOUS
  0
LAYER
  2
BALLOONS
 70
0
 62
7
  6
CONTINUOUS
  0
ENDTAB
  0
TABLE
  2
STYLE
 70
1
  0
STYLE
  2
STANDARD
 70
0
 40
0.0
 41
1.0
 50
0.0
 71
0
 42
0.2
  3
veramono.ttf
  4

  0
STYLE
  2
TEXTSTYLE_1
 70
0
 40
0.0
 41
0.8
 50
0.0
 71
0
 42
0.2
  3
gdt
  4

  0
STYLE
  2
TEXTSTYLE_2
 70
0
 40
0.0
 41
1.0
 50
0.0
 71
0
 42
0.2
  3
sf automaton extended.ttf
  4

  0
STYLE
  2
TEXTSTYLE_3
 70
0
 40
0.0
 41
1.0
 50
0.0
 71
0
 42
0.2
  3
veramono.ttf
  4

  0
STYLE
  2
TEXTSTYLE_4
 70
0
 40
0.0
 41
1.0
 50
0.0
 71
0
 42
0.2
  3
veramono.ttf
  4

  0
STYLE
  2
TEXTSTYLE_5
 70
0
 40
0.0
 41
1.0
 50
0.0
 71
0
 42
0.2
  3
veramono.ttf
  4

  0
ENDTAB
  0
ENDSEC
  0
SECTION
  2
BLOCKS
  0
BLOCK
  8
0
  2
_FILLED
 70
64
 10
0.0
 20
0.0
  0
SOLID
  8
0
  6
BYBLOCK
 62
0
 10
0.0
 20
0.0
 11
-1.0
 21
0.1666666667
 12
-1.0
 22
-0.1666666667
 13
-1.0
 23
-0.1666666667
  0
ENDBLK
  8
0
  6
BYBLOCK
 62
0
  0
BLOCK
  8
0
 62
2
  6
CONTINUOUS
  2
*D0
 70
65
 10
0.0
 20
0.0
  0
TEXT
  8
0
 62
2
  6
CONTINUOUS
 10
5.6319105577
 20
9.0696115094
  7
STANDARD
 40
0.15625
  1
113
 41
1.0
 72
1
 11
5.825935283
 21
9.0696115094
  0
LINE
  8
0
 62
2
  6
CONTINUOUS
 10
8.0503447318
 20
8.651341999
 11
8.0503447318
 21
9.2727365094
  0
LINE
  8
0
 62
2
  6
CONTINUOUS
 10
3.6015258342
 20
8.5726018415
 11
3.6015258342
 21
9.2727365094
  0
LINE
  8
0
 62
2
  6
CONTINUOUS
 10
8.0503447318
 20
9.1477365094
 11
6.0980850083
 21
9.1477365094
  0
LINE
  8
0
 62
2
  6
CONTINUOUS
 10
3.6015258342
 20
9.1477365094
 11
5.5537855577
 21
9.1477365094
  0
INSERT
  8
0
 62
2
  6
CONTINUOUS
  2
_FILLED
 10
8.0503447318
 20
9.1477365094
 41
0.1875
 42
0.1875
 43
0.1875
  0
INSERT
  8
0
 62
2
  6
CONTINUOUS
  2
_FILLED
 10
3.6015258342
 20
9.1477365094
 41
0.1875
 42
0.1875
 43
0.1875
 50
180.0
  0
ENDBLK
  8
0
  6
BYBLOCK
 62
0
  0
BLOCK
  8
0
 62
2
  6
CONTINUOUS
  2
*D1
 70
65
 10
0.0
 20
0.0
  0
TEXT
  8
0
 62
2
  6
CONTINUOUS
 10
7.6650894032
 20
6.7241827094
  7
STANDARD
 40
0.15625
  1
13
 41
1.0
 72
1
 11
7.79443922
 21
6.7241827094
  0
LINE
  8
0
 62
2
  6
CONTINUOUS
 10
8.0503447318
 20
7.1877593218
 11
8.0503447318
 21
6.6773077094
  0
LINE
  8
0
 62
2
  6
CONTINUOUS
 10
7.5385337082
 20
7.8570506604
 11
7.5385337082
 21
6.6773077094
  0
LINE
  8
0
 62
2
  6
CONTINUOUS
 10
8.0503447318
 20
6.8023077094
 11
8.5503447318
 21
6.8023077094
  0
LINE
  8
0
 62
2
  6
CONTINUOUS
 10
7.5385337082
 20
6.8023077094
 11
7.0385337082
 21
6.8023077094
  0
INSERT
  8
0
 62
2
  6
CONTINUOUS
  2
_FILLED
 10
8.0503447318
 20
6.8023077094
 41
0.1875
 42
0.1875
 43
0.1875
 50
180.0
  0
INSERT
  8
0
 62
2
  6
CONTINUOUS
  2
_FILLED
 10
7.5385337082
 20
6.8023077094
 41
0.1875
 42
0.1875
 43
0.1875
  0
ENDBLK
  8
0
  6
BYBLOCK
 62
0
  0
BLOCK
  8
0
 62
2
  6
CONTINUOUS
  2
*D2
 70
65
 10
0.0
 20
0.0
  0
TEXT
  8
0
 62
2
  6
CONTINUOUS
 10
7.4682390095
 20
6.3867910355
  7
STANDARD
 40
0.15625
  1
23
 41
1.0
 72
1
 11
7.5975888263
 21
6.3867910355
  0
LINE
  8
0
 62
2
  6
CONTINUOUS
 10
8.0503447318
 20
7.1877593218
 11
8.0503447318
 21
6.3399160355
  0
LINE
  8
0
 62
2
  6
CONTINUOUS
 10
7.1448329208
 20
7.0696490856
 11
7.1448329208
 21
6.3399160355
  0
LINE
  8
0
 62
2
  6
CONTINUOUS
 10
8.0503447318
 20
6.4649160355
 11
8.5503447318
 21
6.4649160355
  0
LINE
  8
0
 62
2
  6
CONTINUOUS
 10
7.1448329208
 20
6.4649160355
 11
6.6448329208
 21
6.4649160355
  0
INSERT
  8
0
 62
2
  6
CONTINUOUS
  2
_FILLED
 10
8.0503447318
 20
6.4649160355
 41
0.1875
 42
0.1875
 43
0.1875
 50
180.0
  0
INSERT
  8
0
 62
2
  6
CONTINUOUS
  2
_FILLED
 10
7.1448329208
 20
6.4649160355
 41
0.1875
 42
0.1875
 43
0.1875
  0
ENDBLK
  8
0
  6
BYBLOCK
 62
0
  0
BLOCK
  8
0
 62
2
  6
CONTINUOUS
  2
*D3
 70
65
 10
0.0
 20
0.0
  0
TEXT
  8
0
 62
2
  6
CONTINUOUS
 10
7.3445514837
 20
6.0004947879
  7
STANDARD
 40
0.15625
  1
33
 41
1.0
 72
1
 11
7.4739013005
 21
6.0004947879
  0
LINE
  8
0
 62
2
  6
CONTINUOUS
 10
8.0503447318
 20
7.1877593218
 11
8.0503447318
 21
5.9536197879
  0
LINE
  8
0
 62
2
  6
CONTINUOUS
 10
6.7511321334
 20
7.8570506604
 11
6.7511321334
 21
5.9536197879
  0
LINE
  8
0
 62
2
  6
CONTINUOUS
 10
8.0503447318
 20
6.0786197879
 11
7.6813761174
 21
6.0786197879
  0
LINE
  8
0
 62
2
  6
CONTINUOUS
 10
6.7511321334
 20
6.0786197879
 11
7.2664264837
 21
6.0786197879
  0
INSERT
  8
0
 62
2
  6
CONTINUOUS
  2
_FILLED
 10
8.0503447318
 20
6.0786197879
 41
0.1875
 42
0.1875
 43
0.1875
  0
INSERT
  8
0
 62
2
  6
CONTINUOUS
  2
_FILLED
 10
6.7511321334
 20
6.0786197879
 41
0.1875
 42
0.1875
 43
0.1875
 50
180.0
  0
ENDBLK
  8
0
  6
BYBLOCK
 62
0
  0
BLOCK
  8
0
 62
2
  6
CONTINUOUS
  2
*D4
 70
65
 10
0.0
 20
0.0
  0
TEXT
  8
0
 62
2
  6
CONTINUOUS
 10
5.4406799544
 20
6.0004947879
  7
STANDARD
 40
0.15625
  1
60
 41
1.0
 72
1
 11
5.5700297712
 21
6.0004947879
  0
LINE
  8
0
 62
2
  6
CONTINUOUS
 10
6.7511321334
 20
7.8570506604
 11
6.7511321334
 21
5.9536197879
  0
LINE
  8
0
 62
2
  6
CONTINUOUS
 10
4.388927409
 20
7.8570506604
 11
4.388927409
 21
5.9536197879
  0
LINE
  8
0
 62
2
  6
CONTINUOUS
 10
6.7511321334
 20
6.0786197879
 11
5.7775045881
 21
6.0786197879
  0
LINE
  8
0
 62
2
  6
CONTINUOUS
 10
4.388927409
 20
6.0786197879
 11
5.3625549544
 21
6.0786197879
  0
INSERT
  8
0
 62
2
  6
CONTINUOUS
  2
_FILLED
 10
6.7511321334
 20
6.0786197879
 41
0.1875
 42
0.1875
 43
0.1875
  0
INSERT
  8
0
 62
2
  6
CONTINUOUS
  2
_FILLED
 10
4.388927409
 20
6.0786197879
 41
0.1875
 42
0.1875
 43
0.1875
 50
180.0
  0
ENDBLK
  8
0
  6
BYBLOCK
 62
0
  0
BLOCK
  8
0
 62
2
  6
CONTINUOUS
  2
*D5
 70
65
 10
0.0
 20
0.0
  0
TEXT
  8
0
 62
2
  6
CONTINUOUS
 10
3.4842583476
 20
6.8470795486
  7
STANDARD
 40
0.15625
  1
5.5
 41
1.0
 72
0
  0
LINE
  8
0
 62
2
  6
CONTINUOUS
 10
4.326427409
 20
8.0278183769
 11
3.1092583476
 21
8.0278183769
  0
LINE
  8
0
 62
2
  6
CONTINUOUS
 10
4.326427409
 20
7.8112829438
 11
3.1092583476
 21
7.8112829438
  0
LINE
  8
0
 62
2
  6
CONTINUOUS
 10
3.2342583476
 20
8.0278183769
 11
3.2342583476
 21
8.5278183769
  0
LINE
  8
0
 62
2
  6
CONTINUOUS
 10
3.2342583476
 20
7.8112829438
 11
3.2342583476
 21
6.9252045486
  0
LINE
  8
0
 62
2
  6
CONTINUOUS
 10
3.2342583476
 20
6.9252045486
 11
3.4061333476
 21
6.9252045486
  0
INSERT
  8
0
 62
2
  6
CONTINUOUS
  2
_FILLED
 10
3.2342583476
 20
8.0278183769
 41
0.1875
 42
0.1875
 43
0.1875
 50
270.0
  0
INSERT
  8
0
 62
2
  6
CONTINUOUS
  2
_FILLED
 10
3.2342583476
 20
7.8112829438
 41
0.1875
 42
0.1875
 43
0.1875
 50
90.0
  0
ENDBLK
  8
0
  6
BYBLOCK
 62
0
  0
BLOCK
  8
0
 62
2
  6
CONTINUOUS
  2
*D6
 70
65
 10
0.0
 20
0.0
  0
TEXT
  8
0
 62
2
  6
CONTINUOUS
 10
3.530584948
 20
4.4493354509
  7
STANDARD
 40
0.15625
  1
2
 41
1.0
 72
0
  0
LINE
  8
0
 62
2
  6
CONTINUOUS
 10
3.5390258342
 20
4.9974787736
 11
3.155584948
 21
4.9974787736
  0
LINE
  8
0
 62
2
  6
CONTINUOUS
 10
3.5390258342
 20
5.0762189311
 11
3.155584948
 21
5.0762189311
  0
LINE
  8
0
 62
2
  6
CONTINUOUS
 10
3.280584948
 20
4.9974787736
 11
3.280584948
 21
4.5274604509
  0
LINE
  8
0
 62
2
  6
CONTINUOUS
 10
3.280584948
 20
4.5274604509
 11
3.452459948
 21
4.5274604509
  0
LINE
  8
0
 62
2
  6
CONTINUOUS
 10
3.280584948
 20
5.0762189311
 11
3.280584948
 21
5.5762189311
  0
INSERT
  8
0
 62
2
  6
CONTINUOUS
  2
_FILLED
 10
3.280584948
 20
4.9974787736
 41
0.1875
 42
0.1875
 43
0.1875
 50
90.0
  0
INSERT
  8
0
 62
2
  6
CONTINUOUS
  2
_FILLED
 10
3.280584948
 20
5.0762189311
 41
0.1875
 42
0.1875
 43
0.1875
 50
270.0
  0
ENDBLK
  8
0
  6
BYBLOCK
 62
0
  0
BLOCK
  8
0
 62
2
  6
CONTINUOUS
  2
*D7
 70
65
 10
0.0
 20
0.0
  0
TEXT
  8
0
 62
2
  6
CONTINUOUS
 10
2.603339385
 20
4.9380107153
  7
STANDARD
 40
0.15625
  1
30
 41
1.0
 72
1
 11
2.7326892019
 21
4.9380107153
  0
TEXT
  8
0
 62
2
  6
CONTINUOUS
 10
2.8620390187
 20
4.9380107153
  7
TEXTSTYLE_1
 40
0.15625
  1
~
 41
1.0
 72
1
 11
2.9141223521
 21
4.9380107153
  0
LINE
  8
0
 62
2
  6
CONTINUOUS
 10
4.0521629337
 20
5.3724787736
 11
2.6128590816
 21
5.3724787736
  0
LINE
  8
0
 62
2
  6
CONTINUOUS
 10
3.5473992465
 20
5.0449689311
 11
2.8140626463
 21
4.6215768475
  0
ARC
  8
0
 62
2
  6
CONTINUOUS
 10
4.1146629337
 20
5.3724787736
 40
1.3768038521
 50
180.0
 51
188.3564798403
  0
ARC
  8
0
 62
2
  6
CONTINUOUS
 10
4.1146629337
 20
5.3724787736
 40
1.3768038521
 50
201.8579371824
 51
210.0
  0
SOLID
  8
0
 62
2
  6
CONTINUOUS
 10
2.7817941406
 20
5.187539532
 11
2.7378590816
 21
5.3724787736
 12
2.719438978
 22
5.1832870394
 13
2.719438978
 23
5.1832870394
  0
SOLID
  8
0
 62
2
  6
CONTINUOUS
 10
2.811767677
 20
4.8387116437
 11
2.9223158218
 21
4.6840768475
 12
2.8678950781
 22
4.8662064584
 13
2.8678950781
 23
4.8662064584
  0
ENDBLK
  8
0
  6
BYBLOCK
 62
0
  0
BLOCK
  8
0
 62
2
  6
CONTINUOUS
  2
*D8
 70
65
 10
0.0
 20
0.0
  0
TEXT
  8
0
 62
2
  6
CONTINUOUS
 10
8.4754267765
 20
7.8414256604
  7
STANDARD
 40
0.15625
  1
40
 41
1.0
 72
1
 11
8.6047765933
 21
7.8414256604
  0
LINE
  8
0
 62
2
  6
CONTINUOUS
 10
7.9947344956
 20
7.1321490856
 11
8.7297765933
 21
7.1321490856
  0
LINE
  8
0
 62
2
  6
CONTINUOUS
 10
7.9947344956
 20
8.7069522352
 11
8.7297765933
 21
8.7069522352
  0
LINE
  8
0
 62
2
  6
CONTINUOUS
 10
8.6047765933
 20
7.1321490856
 11
8.6047765933
 21
7.7633006604
  0
LINE
  8
0
 62
2
  6
CONTINUOUS
 10
8.6047765933
 20
8.7069522352
 11
8.6047765933
 21
8.0758006604
  0
INSERT
  8
0
 62
2
  6
CONTINUOUS
  2
_FILLED
 10
8.6047765933
 20
7.1321490856
 41
0.1875
 42
0.1875
 43
0.1875
 50
270.0
  0
INSERT
  8
0
 62
2
  6
CONTINUOUS
  2
_FILLED
 10
8.6047765933
 20
8.7069522352
 41
0.1875
 42
0.1875
 43
0.1875
 50
90.0
  0
ENDBLK
  8
0
  6
BYBLOCK
 62
0
  0
BLOCK
  8
0
 62
2
  6
CONTINUOUS
  2
*D9
 70
65
 10
0.0
 20
0.0
  0
TEXT
  8
0
 62
2
  6
CONTINUOUS
 10
2.6707511063
 20
7.8414256604
  7
STANDARD
 40
0.15625
  1
30
 41
1.0
 72
1
 11
2.8001009231
 21
7.8414256604
  0
LINE
  8
0
 62
2
  6
CONTINUOUS
 10
3.5390258342
 20
8.5101018415
 11
2.6751009231
 21
8.5101018415
  0
LINE
  8
0
 62
2
  6
CONTINUOUS
 10
3.5390258342
 20
7.3289994793
 11
2.6751009231
 21
7.3289994793
  0
LINE
  8
0
 62
2
  6
CONTINUOUS
 10
2.8001009231
 20
8.5101018415
 11
2.8001009231
 21
8.0758006604
  0
LINE
  8
0
 62
2
  6
CONTINUOUS
 10
2.8001009231
 20
7.3289994793
 11
2.8001009231
 21
7.7633006604
  0
INSERT
  8
0
 62
2
  6
CONTINUOUS
  2
_FILLED
 10
2.8001009231
 20
8.5101018415
 41
0.1875
 42
0.1875
 43
0.1875
 50
90.0
  0
INSERT
  8
0
 62
2
  6
CONTINUOUS
  2
_FILLED
 10
2.8001009231
 20
7.3289994793
 41
0.1875
 42
0.1875
 43
0.1875
 50
270.0
  0
ENDBLK
  8
0
  6
BYBLOCK
 62
0
  0
BLOCK
  8
0
 62
2
  6
CONTINUOUS
  2
*D10
 70
65
 10
0.0
 20
0.0
  0
TEXT
  8
0
 62
2
  6
CONTINUOUS
 10
8.5583030084
 20
8.9596352739
  7
STANDARD
 40
0.15625
  1
R
 41
1.0
 72
0
  0
TEXT
  8
0
 62
2
  6
CONTINUOUS
 10
8.6876528253
 20
8.9596352739
  7
STANDARD
 40
0.15625
  1
3
 41
1.0
 72
0
  0
LINE
  8
0
 62
2
  6
CONTINUOUS
 10
8.008081049
 20
8.6793810968
 11
8.3083030084
 21
9.0377602739
  0
LINE
  8
0
 62
2
  6
CONTINUOUS
 10
8.3083030084
 20
9.0377602739
 11
8.4801780084
 21
9.0377602739
  0
INSERT
  8
0
 62
2
  6
CONTINUOUS
  2
_FILLED
 10
8.008081049
 20
8.6793810968
 41
0.1875
 42
0.1875
 43
0.1875
 50
230.0463660679
  0
ENDBLK
  8
0
  6
BYBLOCK
 62
0
  0
BLOCK
  8
0
 62
2
  6
CONTINUOUS
  2
*D11
 70
65
 10
0.0
 20
0.0
  0
TEXT
  8
0
 62
2
  6
CONTINUOUS
 10
6.0941923735
 20
9.281322856
  7
STANDARD
 40
0.15625
  1
R
 41
1.0
 72
2
 11
6.2235421903
 21
9.281322856
  0
TEXT
  8
0
 62
2
  6
CONTINUOUS
 10
6.2235421903
 20
9.281322856
  7
STANDARD
 40
0.15625
  1
5
 41
1.0
 72
2
 11
6.3528920072
 21
9.281322856
  0
LINE
  8
0
 62
2
  6
CONTINUOUS
 10
7.0400138407
 20
8.5329398367
 11
6.6028920072
 21
9.359447856
  0
LINE
  8
0
 62
2
  6
CONTINUOUS
 10
6.6028920072
 20
9.359447856
 11
6.4310170072
 21
9.359447856
  0
INSERT
  8
0
 62
2
  6
CONTINUOUS
  2
_FILLED
 10
7.0400138407
 20
8.5329398367
 41
0.1875
 42
0.1875
 43
0.1875
 50
297.8733743233
  0
ENDBLK
  8
0
  6
BYBLOCK
 62
0
  0
BLOCK
  8
0
 62
2
  6
CONTINUOUS
  2
*D12
 70
65
 10
0.0
 20
0.0
  0
TEXT
  8
0
 62
2
  6
CONTINUOUS
 10
8.9408894962
 20
6.7869054972
  7
TEXTSTYLE_1
 40
0.15625
  1
n
 41
1.0
 72
0
  0
TEXT
  8
0
 62
2
  6
CONTINUOUS
 10
9.1492228295
 20
6.7869054972
  7
STANDARD
 40
0.15625
  1
8.8
 41
1.0
 72
0
  0
LINE
  8
0
 62
2
  6
CONTINUOUS
 10
7.6663294177
 20
7.8026048752
 11
8.6908894962
 21
6.8650304972
  0
LINE
  8
0
 62
2
  6
CONTINUOUS
 10
8.6908894962
 20
6.8650304972
 11
8.8627644962
 21
6.8650304972
  0
INSERT
  8
0
 62
2
  6
CONTINUOUS
  2
_FILLED
 10
7.6663294177
 20
7.8026048752
 41
0.1875
 42
0.1875
 43
0.1875
 50
137.5383848233
  0
ENDBLK
  8
0
  6
BYBLOCK
 62
0
  0
BLOCK
  8
0
 62
2
  6
CONTINUOUS
  2
*D13
 70
65
 10
0.0
 20
0.0
  0
TEXT
  8
0
 62
2
  6
CONTINUOUS
 10
8.1289428517
 20
5.1068537736
  7
STANDARD
 40
0.15625
  1
9.5
 41
1.0
 72
1
 11
8.322967577
 21
5.1068537736
  0
TEXT
  8
0
 62
2
  6
CONTINUOUS
 10
8.5169923023
 20
5.1068537736
  7
STANDARD
 40
0.15625
  1
 (Ref)
 41
1.0
 72
1
 11
8.9050417528
 21
5.1068537736
  0
LINE
  8
0
 62
2
  6
CONTINUOUS
 10
7.9947344956
 20
4.9974787736
 11
8.8360170275
 21
4.9974787736
  0
LINE
  8
0
 62
2
  6
CONTINUOUS
 10
7.9947344956
 20
5.3724787736
 11
8.8360170275
 21
5.3724787736
  0
LINE
  8
0
 62
2
  6
CONTINUOUS
 10
8.7110170275
 20
4.9974787736
 11
8.7110170275
 21
4.4974787736
  0
LINE
  8
0
 62
2
  6
CONTINUOUS
 10
8.7110170275
 20
5.3724787736
 11
8.7110170275
 21
5.8724787736
  0
INSERT
  8
0
 62
2
  6
CONTINUOUS
  2
_FILLED
 10
8.7110170275
 20
4.9974787736
 41
0.1875
 42
0.1875
 43
0.1875
 50
90.0
  0
INSERT
  8
0
 62
2
  6
CONTINUOUS
  2
_FILLED
 10
8.7110170275
 20
5.3724787736
 41
0.1875
 42
0.1875
 43
0.1875
 50
270.0
  0
ENDBLK
  8
0
  6
BYBLOCK
 62
0
  0
ENDSEC
  0
SECTION
  2
ENTITIES
  0
TEXT
  8
0
 62
2
  6
CONTINUOUS
 10
13.8112693557
 20
2.2356652566
  7
TEXTSTYLE_2
 40
0.18
  1
Inventables
 41
1.0
 72
0
  0
TEXT
  8
0
 62
2
  6
CONTINUOUS
 10
13.905865283
 20
1.8153497094
  7
TEXTSTYLE_3
 40
0.125
  1
www.inventables.com
 41
1.0
 72
0
  0
DIMENSION
  8
0
 62
2
  6
CONTINUOUS
  2
*D0
 10
3.6015258342
 20
9.1477365094
 11
5.825935283
 21
9.1477365094
 70
128
 13
8.0503447318
 23
8.588841999
 14
3.6015258342
 24
8.5101018415
 50
180.0
  0
DIMENSION
  8
0
 62
2
  6
CONTINUOUS
  2
*D1
 10
7.5385337082
 20
6.8023077094
 11
7.79443922
 21
6.8023077094
 70
128
 13
8.0503447318
 23
7.2502593218
 14
7.5385337082
 24
7.9195506604
 50
180.0
  0
DIMENSION
  8
0
 62
2
  6
CONTINUOUS
  2
*D2
 10
7.1448329208
 20
6.4649160355
 11
7.5975888263
 21
6.4649160355
 70
128
 13
8.0503447318
 23
7.2502593218
 14
7.1448329208
 24
7.1321490856
 50
180.0
  0
DIMENSION
  8
0
 62
2
  6
CONTINUOUS
  2
*D3
 10
6.7511321334
 20
6.0786197879
 11
7.4739013005
 21
6.0786197879
 70
128
 13
8.0503447318
 23
7.2502593218
 14
6.7511321334
 24
7.9195506604
 50
180.0
  0
DIMENSION
  8
0
 62
2
  6
CONTINUOUS
  2
*D4
 10
4.388927409
 20
6.0786197879
 11
5.5700297712
 21
6.0786197879
 70
128
 13
6.7511321334
 23
7.9195506604
 14
4.388927409
 24
7.9195506604
 50
180.0
  0
DIMENSION
  8
0
 62
2
  6
CONTINUOUS
  2
*D5
 10
3.2342583476
 20
7.8112829438
 11
3.6782830728
 21
6.9252045486
 70
128
 13
4.388927409
 23
8.0278183769
 14
4.388927409
 24
7.8112829438
 50
270.0
  0
DIMENSION
  8
0
 62
2
  6
CONTINUOUS
  2
*D6
 10
3.280584948
 20
5.0762189311
 11
3.5952598565
 21
4.5274604509
 70
128
 13
3.6015258342
 23
4.9974787736
 14
3.6015258342
 24
5.0762189311
 50
90.0
  0
DIMENSION
  8
0
 62
2
  6
CONTINUOUS
  2
*D7
 10
2.8140626463
 20
4.6215768475
 11
2.7847725352
 21
5.0161357153
 70
130
 13
2.6128590816
 23
5.3724787736
 14
4.0521629337
 24
5.3724787736
 15
3.5473992465
 25
5.0449689311
 16
2.7847725352
 26
5.0161357153
  0
DIMENSION
  8
0
 62
2
  6
CONTINUOUS
  2
*D8
 10
8.6047765933
 20
8.7069522352
 11
8.6047765933
 21
7.9195506604
 70
128
 13
7.9322344956
 23
7.1321490856
 14
7.9322344956
 24
8.7069522352
 50
90.0
  0
DIMENSION
  8
0
 62
2
  6
CONTINUOUS
  2
*D9
 10
2.8001009231
 20
7.3289994793
 11
2.8001009231
 21
7.9195506604
 70
128
 13
3.6015258342
 23
8.5101018415
 14
3.6015258342
 24
7.3289994793
 50
270.0
  0
DIMENSION
  8
0
 62
2
  6
CONTINUOUS
  2
*D10
 10
7.9322344956
 20
8.588841999
 11
8.6876528253
 21
9.0377602739
 70
132
 15
8.008081049
 25
8.6793810968
  0
DIMENSION
  8
0
 62
2
  6
CONTINUOUS
  2
*D11
 10
6.9479825271
 20
8.7069522352
 11
6.2235421903
 21
9.359447856
 70
132
 15
7.0400138407
 25
8.5329398367
  0
DIMENSION
  8
0
 62
2
  6
CONTINUOUS
  2
*D12
 10
7.6663294177
 20
7.8026048752
 11
9.2390808881
 21
6.8650304972
 70
131
 15
7.4107379988
 25
8.0364964455
  0
DIMENSION
  8
0
 62
2
  6
CONTINUOUS
  2
*D13
 10
8.7110170275
 20
5.3724787736
 11
8.7110170275
 21
5.1849787736
 70
128
 13
7.9322344956
 23
4.9974787736
 14
7.9322344956
 24
5.3724787736
 50
90.0
  0
LINE
  8
0
 62
7
  6
CONTINUOUS
 10
15.9997977969
 20
1.0002134313
 11
10.2497977969
 21
1.0002134313
  0
LINE
  8
0
 62
7
  6
CONTINUOUS
 10
15.9997977969
 20
1.0002134313
 11
15.9997977969
 21
2.5314634313
  0
LINE
  8
0
 62
7
  6
CONTINUOUS
 10
15.9997977969
 20
1.2502134313
 11
10.2497977969
 21
1.2502134313
  0
LINE
  8
0
 62
7
  6
CONTINUOUS
 10
15.9997977969
 20
1.7502134313
 11
13.7497977969
 21
1.7502134313
  0
LINE
  8
0
 62
7
  6
CONTINUOUS
 10
15.9997977969
 20
2.5314634313
 11
10.2497977969
 21
2.5314634313
  0
LINE
  8
0
 62
7
  6
CONTINUOUS
 10
13.7497977969
 20
1.0002134313
 11
13.7497977969
 21
2.5314634313
  0
LINE
  8
0
 62
7
  6
CONTINUOUS
 10
11.7497977969
 20
1.0002134313
 11
11.7497977969
 21
1.2502134313
  0
LINE
  8
0
 62
7
  6
CONTINUOUS
 10
10.2497977969
 20
1.0002134313
 11
10.2497977969
 21
2.5314634313
  0
TEXT
  8
BALLOONS
 62
2
  6
CONTINUOUS
 10
13.8122977969
 20
1.0470884313
  7
TEXTSTYLE_4
 40
0.125
  1
SHEET 
 41
1.0
 72
0
  0
TEXT
  8
BALLOONS
 62
2
  6
CONTINUOUS
 10
14.4331769177
 20
1.0470884313
  7
TEXTSTYLE_4
 40
0.125
  1
1
 41
1.0
 72
0
  0
TEXT
  8
BALLOONS
 62
2
  6
CONTINUOUS
 10
14.5366567712
 20
1.0470884313
  7
TEXTSTYLE_4
 40
0.125
  1
 OF 
 41
1.0
 72
0
  0
TEXT
  8
BALLOONS
 62
2
  6
CONTINUOUS
 10
14.9505761851
 20
1.0470884313
  7
TEXTSTYLE_4
 40
0.125
  1
1
 41
1.0
 72
0
  0
TEXT
  8
BALLOONS
 62
2
  6
CONTINUOUS
 10
10.3122977969
 20
1.0470884313
  7
TEXTSTYLE_4
 40
0.125
  1
SCALE
 41
1.0
 72
0
  0
TEXT
  8
0
 62
2
  6
CONTINUOUS
 10
14.4774351595
 20
1.4202134313
  7
TEXTSTYLE_3
 40
0.16
  1
B25002
 41
1.0
 72
1
 11
14.8747977969
 21
1.4202134313
  0
TEXT
  8
0
 62
2
  6
CONTINUOUS
 10
10.7414827786
 20
1.8108384313
  7
TEXTSTYLE_3
 40
0.16
  1
Wood Material Clamp
 41
1.0
 72
1
 11
11.9997977969
 21
1.8108384313
  0
LINE
  8
0
 62
7
  6
CONTINUOUS
 10
10.250020718
 20
1.0000828015
 11
8.500020718
 21
1.0000828015
  0
LINE
  8
0
 62
7
  6
CONTINUOUS
 10
10.250020718
 20
1.0000828015
 11
10.250020718
 21
1.6660828015
  0
LINE
  8
0
 62
7
  6
CONTINUOUS
 10
10.250020718
 20
1.3330828015
 11
8.500020718
 21
1.3330828015
  0
LINE
  8
0
 62
7
  6
CONTINUOUS
 10
10.250020718
 20
1.6660828015
 11
8.500020718
 21
1.6660828015
  0
LINE
  8
0
 62
7
  6
CONTINUOUS
 10
9.500020718
 20
1.3330828015
 11
9.500020718
 21
1.6660828015
  0
LINE
  8
0
 62
7
  6
CONTINUOUS
 10
9.125020718
 20
1.0000828015
 11
9.125020718
 21
1.6660828015
  0
LINE
  8
0
 62
7
  6
CONTINUOUS
 10
8.500020718
 20
1.0000828015
 11
8.500020718
 21
1.6660828015
  0
TEXT
  8
BALLOONS
 62
2
  6
CONTINUOUS
 10
8.562520718
 20
1.1265828015
  7
TEXTSTYLE_5
 40
0.08
  1
CHECKER
 41
1.0
 72
0
  0
TEXT
  8
BALLOONS
 62
2
  6
CONTINUOUS
 10
9.5438851869
 20
1.4495828015
  7
TEXTSTYLE_3
 40
0.1
  1
10/27/13
 41
1.0
 72
1
 11
9.875020718
 21
1.4495828015
  0
TEXT
  8
BALLOONS
 62
2
  6
CONTINUOUS
 10
9.1883448939
 20
1.4495828015
  7
TEXTSTYLE_3
 40
0.1
  1
BJD
 41
1.0
 72
1
 11
9.312520718
 21
1.4495828015
  0
TEXT
  8
BALLOONS
 62
2
  6
CONTINUOUS
 10
8.562520718
 20
1.4595828015
  7
TEXTSTYLE_5
 40
0.08
  1
DRAWN
 41
1.0
 72
0
  0
LINE
  8
0
 62
2
  6
CONTINUOUS
 10
11.5010309862
 20
9.9984879383
 11
16.0010309862
 21
9.9984879383
  0
LINE
  8
0
 62
2
  6
CONTINUOUS
 10
11.5010309862
 20
9.9984879383
 11
11.5010309862
 21
8.7797379383
  0
LINE
  8
0
 62
2
  6
CONTINUOUS
 10
11.5010309862
 20
9.7563004383
 11
16.0010309862
 21
9.7563004383
  0
LINE
  8
0
 62
2
  6
CONTINUOUS
 10
11.5010309862
 20
9.5609879383
 11
16.0010309862
 21
9.5609879383
  0
LINE
  8
0
 62
2
  6
CONTINUOUS
 10
11.5010309862
 20
9.3656754383
 11
16.0010309862
 21
9.3656754383
  0
LINE
  8
0
 62
2
  6
CONTINUOUS
 10
11.5010309862
 20
9.1703629383
 11
16.0010309862
 21
9.1703629383
  0
LINE
  8
0
 62
2
  6
CONTINUOUS
 10
11.5010309862
 20
8.9750504383
 11
16.0010309862
 21
8.9750504383
  0
LINE
  8
0
 62
2
  6
CONTINUOUS
 10
11.5010309862
 20
8.7797379383
 11
16.0010309862
 21
8.7797379383
  0
LINE
  8
0
 62
2
  6
CONTINUOUS
 10
12.0010309862
 20
9.7563004383
 11
12.0010309862
 21
8.7797379383
  0
LINE
  8
0
 62
2
  6
CONTINUOUS
 10
14.8760309862
 20
9.7563004383
 11
14.8760309862
 21
8.7797379383
  0
LINE
  8
0
 62
2
  6
CONTINUOUS
 10
15.2510309862
 20
9.7563004383
 11
15.2510309862
 21
8.7797379383
  0
LINE
  8
0
 62
2
  6
CONTINUOUS
 10
16.0010309862
 20
9.9984879383
 11
16.0010309862
 21
8.7797379383
  0
TEXT
  8
BALLOONS
 62
2
  6
CONTINUOUS
 10
13.2853716455
 20
9.8148941883
  7
TEXTSTYLE_3
 40
0.125
  1
REVISIONS
 41
1.0
 72
1
 11
13.7510309862
 21
9.8148941883
  0
TEXT
  8
BALLOONS
 62
2
  6
CONTINUOUS
 10
11.626855162
 20
9.6086441883
  7
TEXTSTYLE_3
 40
0.1
  1
SYM
 41
1.0
 72
1
 11
11.7510309862
 21
9.6086441883
  0
TEXT
  8
BALLOONS
 62
2
  6
CONTINUOUS
 10
12.9832196309
 20
9.6086441883
  7
TEXTSTYLE_3
 40
0.1
  1
DESCRIPTION
 41
1.0
 72
1
 11
13.4385309862
 21
9.6086441883
  0
TEXT
  8
BALLOONS
 62
2
  6
CONTINUOUS
 10
14.9807471034
 20
9.6086441883
  7
TEXTSTYLE_3
 40
0.1
  1
BY
 41
1.0
 72
1
 11
15.0635309862
 21
9.6086441883
  0
TEXT
  8
BALLOONS
 62
2
  6
CONTINUOUS
 10
15.4604632206
 20
9.6086441883
  7
TEXTSTYLE_3
 40
0.1
  1
DATE
 41
1.0
 72
1
 11
15.6260309862
 21
9.6086441883
  0
TEXT
  8
BALLOONS
 62
2
  6
CONTINUOUS
 10
11.7096390448
 20
9.4133316883
  7
TEXTSTYLE_3
 40
0.1
  1
1
 41
1.0
 72
1
 11
11.7510309862
 21
9.4133316883
  0
TEXT
  8
BALLOONS
 62
2
  6
CONTINUOUS
 10
12.0635309862
 20
9.4133316883
  7
TEXTSTYLE_3
 40
0.1
  1
ORIGINAL        
 41
1.0
 72
0
  0
TEXT
  8
BALLOONS
 62
2
  6
CONTINUOUS
 10
14.939355162
 20
9.4133316883
  7
TEXTSTYLE_3
 40
0.1
  1
BJD
 41
1.0
 72
1
 11
15.0635309862
 21
9.4133316883
  0
TEXT
  8
BALLOONS
 62
2
  6
CONTINUOUS
 10
15.294895455
 20
9.4133316883
  7
TEXTSTYLE_4
 40
0.1
  1
10/27/13
 41
1.0
 72
1
 11
15.6260309862
 21
9.4133316883
  0
TEXT
  8
BALLOONS
 62
2
  6
CONTINUOUS
 10
11.7096390448
 20
9.2180191883
  7
TEXTSTYLE_3
 40
0.1
  1
2
 41
1.0
 72
1
 11
11.7510309862
 21
9.2180191883
  0
TEXT
  8
BALLOONS
 62
2
  6
CONTINUOUS
 10
12.0635309862
 20
9.2180191883
  7
TEXTSTYLE_3
 40
0.1
  1
Revised hole diameter
 41
1.0
 72
0
  0
TEXT
  8
BALLOONS
 62
2
  6
CONTINUOUS
 10
14.939355162
 20
9.2180191883
  7
TEXTSTYLE_3
 40
0.1
  1
BJD
 41
1.0
 72
1
 11
15.0635309862
 21
9.2180191883
  0
TEXT
  8
BALLOONS
 62
2
  6
CONTINUOUS
 10
15.294895455
 20
9.2180191883
  7
TEXTSTYLE_3
 40
0.1
  1
11/21/13
 41
1.0
 72
1
 11
15.6260309862
 21
9.2180191883
  0
TEXT
  8
BALLOONS
 62
2
  6
CONTINUOUS
 10
11.7096390448
 20
9.0227066883
  7
TEXTSTYLE_3
 40
0.1
  1
3
 41
1.0
 72
1
 11
11.7510309862
 21
9.0227066883
  0
TEXT
  8
BALLOONS
 62
2
  6
CONTINUOUS
 10
12.0635309862
 20
9.0227066883
  7
TEXTSTYLE_3
 40
0.1
  1
Revised hole diameter
 41
1.0
 72
0
  0
TEXT
  8
BALLOONS
 62
2
  6
CONTINUOUS
 10
14.939355162
 20
9.0227066883
  7
TEXTSTYLE_3
 40
0.1
  1
BJD
 41
1.0
 72
1
 11
15.0635309862
 21
9.0227066883
  0
TEXT
  8
BALLOONS
 62
2
  6
CONTINUOUS
 10
15.294895455
 20
9.0227066883
  7
TEXTSTYLE_3
 40
0.1
  1
12/11/13
 41
1.0
 72
1
 11
15.6260309862
 21
9.0227066883
  0
TEXT
  8
BALLOONS
 62
2
  6
CONTINUOUS
 10
11.7096390448
 20
8.8273941883
  7
TEXTSTYLE_3
 40
0.1
  1
4
 41
1.0
 72
1
 11
11.7510309862
 21
8.8273941883
  0
TEXT
  8
BALLOONS
 62
2
  6
CONTINUOUS
 10
12.0635309862
 20
8.8273941883
  7
TEXTSTYLE_3
 40
0.1
  1
Changed length and hole
 41
1.0
 72
0
  0
TEXT
  8
BALLOONS
 62
2
  6
CONTINUOUS
 10
14.939355162
 20
8.8273941883
  7
TEXTSTYLE_3
 40
0.1
  1
BJD
 41
1.0
 72
1
 11
15.0635309862
 21
8.8273941883
  0
TEXT
  8
BALLOONS
 62
2
  6
CONTINUOUS
 10
15.3362873964
 20
8.8273941883
  7
TEXTSTYLE_3
 40
0.1
  1
2/10/14
 41
1.0
 72
1
 11
15.6260309862
 21
8.8273941883
  0
TEXT
  8
BALLOONS
 62
2
  6
CONTINUOUS
 10
6.0241845442
 20
9.6492309022
  7
STANDARD
 40
0.15625
  1
Grain Direction
 41
1.0
 72
0
  0
LINE
  8
BALLOONS
 62
2
  6
CONTINUOUS
 10
4.7574213887
 20
9.7179653155
 11
5.7741845442
 21
9.7273559022
  0
LINE
  8
BALLOONS
 62
2
  6
CONTINUOUS
 10
5.7741845442
 20
9.7273559022
 11
6.0241845442
 21
9.7273559022
  0
SOLID
  8
BALLOONS
 62
2
  6
CONTINUOUS
 10
4.944624787
 20
9.7509456151
 11
4.7574213887
 21
9.7179653155
 12
4.9452019978
 22
9.6884482805
 13
4.9452019978
 23
9.6884482805
  0
TEXT
  8
BALLOONS
 62
2
  6
CONTINUOUS
 10
10.6153354876
 20
3.4541742985
  7
STANDARD
 40
0.15625
  1
Notes:
 41
1.0
 72
0
  0
TEXT
  8
BALLOONS
 62
2
  6
CONTINUOUS
 10
10.6153354876
 20
3.2197992985
  7
STANDARD
 40
0.15625
  1
1. Material: 1/2" (Nominal) Red Oak
 41
1.0
 72
0
  0
TEXT
  8
BALLOONS
 62
2
  6
CONTINUOUS
 10
10.6153354876
 20
2.9854242985
  7
STANDARD
 40
0.15625
  1
2. Grain direction is critical and shown
 41
1.0
 72
0
  0
TEXT
  8
BALLOONS
 62
2
  6
CONTINUOUS
 10
10.6153354876
 20
2.7510492985
  7
STANDARD
 40
0.15625
  1
   on drawing.
 41
1.0
 72
0
  0
TEXT
  8
BALLOONS
 62
2
  6
CONTINUOUS
 10
8.6046173792
 20
3.9522311906
  7
STANDARD
 40
0.15625
  1
1.5 x 45
 41
1.0
 72
0
  0
TEXT
  8
BALLOONS
 62
2
  6
CONTINUOUS
 10
9.639415914
 20
3.9522311906
  7
TEXTSTYLE_1
 40
0.15625
  1
~
 41
1.0
 72
0
  0
TEXT
  8
BALLOONS
 62
2
  6
CONTINUOUS
 10
9.7696242474
 20
3.9522311906
  7
STANDARD
 40
0.15625
  1
 CHAM
 41
1.0
 72
0
  0
LINE
  8
BALLOONS
 62
2
  6
CONTINUOUS
 10
7.6694113992
 20
3.6208070788
 11
8.3546173792
 21
4.0303561906
  0
LINE
  8
BALLOONS
 62
2
  6
CONTINUOUS
 10
8.3546173792
 20
4.0303561906
 11
8.6046173792
 21
4.0303561906
  0
SOLID
  8
BALLOONS
 62
2
  6
CONTINUOUS
 10
7.8143215987
 20
3.7438267789
 11
7.6694113992
 21
3.6208070788
 12
7.846386896
 22
3.6901791629
 13
7.846386896
 23
3.6901791629
  0
LINE
  8
0
 62
7
  6
CONTINUOUS
 10
0.0
 20
0.0
 11
0.0
 21
11.0
  0
LINE
  8
0
 62
7
  6
CONTINUOUS
 10
1.0
 20
1.0
 11
1.0
 21
10.0
  0
LINE
  8
0
 62
7
  6
CONTINUOUS
 10
0.0
 20
0.0
 11
17.0
 21
0.0
  0
LINE
  8
0
 62
7
  6
CONTINUOUS
 10
1.0
 20
1.0
 11
16.0
 21
1.0
  0
LINE
  8
0
 62
7
  6
CONTINUOUS
 10
1.0
 20
10.0
 11
16.0
 21
10.0
  0
LINE
  8
0
 62
7
  6
CONTINUOUS
 10
0.0
 20
11.0
 11
17.0
 21
11.0
  0
LINE
  8
0
 62
7
  6
CONTINUOUS
 10
16.0
 20
1.0
 11
16.0
 21
10.0
  0
LINE
  8
0
 62
7
  6
CONTINUOUS
 10
17.0
 20
0.0
 11
17.0
 21
11.0
  0
LINE
  8
0
 62
7
  6
CONTINUOUS
 10
3.6015258342
 20
8.5101018415
 11
3.6015258342
 21
7.3289994793
  0
LINE
  8
0
 62
7
  6
CONTINUOUS
 10
4.1146629337
 20
7.3289994793
 11
4.1146629337
 21
8.5101018415
  0
LINE
  8
0
 62
7
  6
CONTINUOUS
 10
7.9322344956
 20
7.1321490856
 11
7.1448329208
 21
7.1321490856
  0
LINE
  8
0
 62
7
  6
CONTINUOUS
 10
3.6015258342
 20
7.3289994793
 11
6.9479825271
 21
7.3289994793
  0
LINE
  8
0
 62
7
  6
CONTINUOUS
 10
6.7511321334
 20
7.8112829438
 11
4.388927409
 21
7.8112829438
  0
LINE
  8
0
 62
7
  6
CONTINUOUS
 10
4.388927409
 20
8.0278183769
 11
6.7511321334
 21
8.0278183769
  0
LINE
  8
0
 62
7
  6
CONTINUOUS
 10
3.6015258342
 20
8.5101018415
 11
6.9479825271
 21
8.5101018415
  0
LINE
  8
0
 62
7
  6
CONTINUOUS
 10
7.9322344956
 20
8.7069522352
 11
7.1448329208
 21
8.7069522352
  0
LINE
  8
0
 62
7
  6
CONTINUOUS
 10
8.0503447318
 20
8.588841999
 11
8.0503447318
 21
7.2502593218
  0
LINE
  8
0
 62
7
  6
CONTINUOUS
 10
3.6015258342
 20
4.9974787736
 11
3.6015258342
 21
5.0762189311
  0
LINE
  8
DEFAULT_2
 62
8
  6
HIDDEN
 10
4.2806596925
 20
5.3724787736
 11
4.2806596925
 21
4.9974787736
  0
LINE
  8
0
 62
7
  6
CONTINUOUS
 10
3.6015258342
 20
5.0762189311
 11
4.1146629337
 21
5.3724787736
  0
LINE
  8
DEFAULT_2
 62
8
  6
HIDDEN
 10
7.7708171728
 20
4.9974787736
 11
7.3062502437
 21
4.9974787736
  0
LINE
  8
0
 62
7
  6
CONTINUOUS
 10
3.6015258342
 20
4.9974787736
 11
8.0503447318
 21
4.9974787736
  0
LINE
  8
DEFAULT_2
 62
8
  6
HIDDEN
 10
4.2806596925
 20
4.9974787736
 11
6.8593998499
 21
4.9974787736
  0
LINE
  8
DEFAULT_2
 62
8
  6
HIDDEN
 10
7.7117620547
 20
5.0565338917
 11
7.3653053618
 21
5.0565338917
  0
LINE
  8
DEFAULT_2
 62
8
  6
HIDDEN
 10
4.2806596925
 20
5.3724787736
 11
6.8593998499
 21
5.3724787736
  0
LINE
  8
02___PRT_ALL_AXES
 62
8
  6
HIDDEN
 10
7.3653053618
 20
5.3724787736
 11
7.7117620547
 21
5.3724787736
  0
LINE
  8
0
 62
7
  6
CONTINUOUS
 10
4.1146629337
 20
5.3724787736
 11
8.0503447318
 21
5.3724787736
  0
LINE
  8
DEFAULT_2
 62
8
  6
HIDDEN
 10
6.8593998499
 20
5.3724787736
 11
6.8593998499
 21
4.9974787736
  0
LINE
  8
DEFAULT_2
 62
8
  6
HIDDEN
 10
7.3653053623
 20
5.0565338923
 11
7.3062502444
 21
4.9974787743
  0
LINE
  8
0
 62
7
  6
CONTINUOUS
 10
7.1448329208
 20
5.3724787736
 11
7.1448329208
 21
4.9974787736
  0
LINE
  8
DEFAULT_2
 62
8
  6
HIDDEN
 10
7.1448329208
 20
4.9974787736
 11
7.1448329208
 21
5.3724787736
  0
LINE
  8
DEFAULT_2
 62
8
  6
HIDDEN
 10
7.7117620542
 20
5.0565338921
 11
7.7708171722
 21
4.9974787742
  0
LINE
  8
02___PRT_ALL_AXES
 62
8
  6
HIDDEN
 10
7.3653053618
 20
5.3724787736
 11
7.3653053618
 21
5.0565338917
  0
LINE
  8
DEFAULT_2
 62
8
  6
HIDDEN
 10
7.3653053618
 20
5.3724787736
 11
7.3653053618
 21
5.0565338917
  0
LINE
  8
02___PRT_ALL_AXES
 62
8
  6
HIDDEN
 10
7.7117620547
 20
5.3724787736
 11
7.7117620547
 21
5.0565338917
  0
LINE
  8
DEFAULT_2
 62
8
  6
HIDDEN
 10
7.7117620547
 20
5.3724787736
 11
7.7117620547
 21
5.0565338917
  0
LINE
  8
DEFAULT_2
 62
8
  6
HIDDEN
 10
8.0503447318
 20
5.3724787736
 11
8.0503447318
 21
4.9974787736
  0
LINE
  8
0
 62
7
  6
CONTINUOUS
 10
8.0503447318
 20
4.9974787736
 11
8.0503447318
 21
5.3724787736
  0
LINE
  8
0
 62
7
  6
CONTINUOUS
 10
3.6015258342
 20
2.8383663397
 11
3.6015258342
 21
4.0194687019
  0
LINE
  8
0
 62
7
  6
CONTINUOUS
 10
7.9322344956
 20
2.641515946
 11
7.1448329208
 21
2.641515946
  0
LINE
  8
0
 62
7
  6
CONTINUOUS
 10
6.9479825271
 20
2.8383663397
 11
3.6015258342
 21
2.8383663397
  0
LINE
  8
0
 62
7
  6
CONTINUOUS
 10
4.388927409
 20
3.3206498042
 11
6.7511321334
 21
3.3206498042
  0
LINE
  8
0
 62
7
  6
CONTINUOUS
 10
6.7511321334
 20
3.5371852373
 11
4.388927409
 21
3.5371852373
  0
LINE
  8
0
 62
7
  6
CONTINUOUS
 10
3.6015258342
 20
4.0194687019
 11
6.9479825271
 21
4.0194687019
  0
LINE
  8
0
 62
7
  6
CONTINUOUS
 10
7.9322344956
 20
4.2163190956
 11
7.1448329208
 21
4.2163190956
  0
LINE
  8
0
 62
7
  6
CONTINUOUS
 10
8.0503447318
 20
2.7596261822
 11
8.0503447318
 21
4.0982088593
  0
CIRCLE
  8
DEFAULT_2
 62
8
  6
HIDDEN
 10
7.5385337082
 20
7.9195506604
 40
0.2322834646
  0
ARC
  8
0
 62
7
  6
CONTINUOUS
 10
6.9479825271
 20
8.7069522352
 40
0.1968503937
 50
270.0
 51
360.0
  0
ARC
  8
0
 62
7
  6
CONTINUOUS
 10
6.9479825271
 20
7.1321490856
 40
0.1968503937
 50
0.0
 51
90.0
  0
CIRCLE
  8
02___PRT_ALL_AXES
 62
7
  6
CONTINUOUS
 10
7.5385337082
 20
7.9195506604
 40
0.1732283465
  0
ARC
  8
0
 62
7
  6
CONTINUOUS
 10
7.9322344956
 20
8.588841999
 40
0.1181102362
 50
0.0
 51
90.0
  0
ARC
  8
0
 62
7
  6
CONTINUOUS
 10
7.9322344956
 20
7.2502593218
 40
0.1181102362
 50
270.0
 51
360.0
  0
ARC
  8
0
 62
7
  6
CONTINUOUS
 10
4.388927409
 20
7.9195506604
 40
0.1082677165
 50
90.0
 51
270.0
  0
ARC
  8
0
 62
7
  6
CONTINUOUS
 10
6.7511321334
 20
7.9195506604
 40
0.1082677165
 50
270.0
 51
90.0
  0
CIRCLE
  8
0
 62
7
  6
CONTINUOUS
 10
7.5385337082
 20
3.4289175208
 40
0.2322834646
  0
ARC
  8
0
 62
7
  6
CONTINUOUS
 10
6.9479825271
 20
2.641515946
 40
0.1968503937
 50
0.0
 51
90.0
  0
ARC
  8
0
 62
7
  6
CONTINUOUS
 10
6.9479825271
 20
4.2163190956
 40
0.1968503937
 50
270.0
 51
360.0
  0
CIRCLE
  8
0
 62
7
  6
CONTINUOUS
 10
7.5385337082
 20
3.4289175208
 40
0.1732283465
  0
ARC
  8
0
 62
7
  6
CONTINUOUS
 10
7.9322344956
 20
4.0982088593
 40
0.1181102362
 50
0.0
 51
90.0
  0
ARC
  8
0
 62
7
  6
CONTINUOUS
 10
7.9322344956
 20
2.7596261822
 40
0.1181102362
 50
270.0
 51
360.0
  0
ARC
  8
0
 62
7
  6
CONTINUOUS
 10
4.388927409
 20
3.4289175208
 40
0.1082677165
 50
90.0
 51
270.0
  0
ARC
  8
0
 62
7
  6
CONTINUOUS
 10
6.7511321334
 20
3.4289175208
 40
0.1082677165
 50
270.0
 51
90.0
  0
ENDSEC
  0
EOF
