  0
SECTION
  2
HEADER
  9
$ACADVER
  1
AC1009
  9
$INSBASE
 10
0.0
 20
0.0
 30
0.0
  9
$EXTMIN
 10
0.0
 20
0.0
 30
0.0
  9
$EXTMAX
 10
0.0
 20
0.0
 30
0.0
  0
ENDSEC
  0
SECTION
  2
TABLES
  0
TABLE
  2
VPORT
 70
0
  0
ENDTAB
  0
TABLE
  2
LTYPE
 70
1
  0
LTYPE
  2
CONTINUOUS
 70
0
  3
Solid line
 72
65
 73
0
 40
0.0
  0
ENDTAB
  0
TABLE
  2
LAYER
 70
1
  0
LAYER
  2
0
 70
64
 62
7
  6
continuous
  0
ENDTAB
  0
TABLE
  2
STYLE
 70
1
  0
STYLE
  2
STANDARD
 70
0
 40
0
 41
1.0
 50
0.0
 71
0
 42
1
 3
ARIAL.TTF
 4

  0
ENDTAB
  0
TABLE
  2
VIEW
 70
0
  0
ENDTAB
  0
ENDSEC
  0
SECTION
  2
BLOCKS
  0
BLOCK
  8
0
  2
PAD
 70
0
 10
0.0
 20
0.0
 30
0.0
  3
PAD
  0
LINE
  8
0
 62
0
 10
10.0
 20
22.7279220614
 30
0.0
 11
10.0
 21
122.727922061
 31
0.0
  0
ARC
  8
0
 62
0
 10
22.7279220614
 20
122.727922061
 30
0.0
 40
12.7279220614
 50
90.0
 51
180.0
  0
LINE
  8
0
 62
0
 10
22.7279220614
 20
135.455844123
 30
0.0
 11
122.727922061
 21
135.455844123
 31
0.0
  0
ARC
  8
0
 62
0
 10
122.727922061
 20
122.727922061
 30
0.0
 40
12.7279220614
 50
-0.0
 51
90.0
  0
LINE
  8
0
 62
0
 10
135.455844123
 20
122.727922061
 30
0.0
 11
135.455844123
 21
22.7279220614
 31
0.0
  0
ARC
  8
0
 62
0
 10
122.727922061
 20
22.7279220614
 30
0.0
 40
12.7279220614
 50
-90.0
 51
0.0
  0
LINE
  8
0
 62
0
 10
122.727922061
 20
10.0
 30
0.0
 11
22.7279220614
 21
10.0
 31
0.0
  0
ARC
  8
0
 62
0
 10
22.7279220614
 20
22.7279220614
 30
0.0
 40
12.7279220614
 50
180.0
 51
-90.0
  0
ENDBLK
  0
BLOCK
  8
0
  2
POCKET
 70
0
 10
0.0
 20
0.0
 30
0.0
  3
POCKET
  0
LINE
  8
0
 62
0
 10
10.0
 20
22.7279220614
 30
0.0
 11
10.0
 21
122.727922061
 31
0.0
  0
ARC
  8
0
 62
0
 10
22.7279220614
 20
22.7279220614
 30
0.0
 40
12.7279220614
 50
180.0
 51
-90.0
  0
ARC
  8
0
 62
0
 10
22.7279220614
 20
122.727922061
 30
0.0
 40
12.7279220614
 50
90.0
 51
180.0
  0
LINE
  8
0
 62
0
 10
122.727922061
 20
10.0
 30
0.0
 11
22.7279220614
 21
10.0
 31
0.0
  0
LINE
  8
0
 62
0
 10
22.7279220614
 20
135.455844123
 30
0.0
 11
122.727922061
 21
135.455844123
 31
0.0
  0
ARC
  8
0
 62
0
 10
122.727922061
 20
22.7279220614
 30
0.0
 40
12.7279220614
 50
-90.0
 51
0.0
  0
ARC
  8
0
 62
0
 10
122.727922061
 20
122.727922061
 30
0.0
 40
12.7279220614
 50
-0.0
 51
90.0
  0
LINE
  8
0
 62
0
 10
135.455844123
 20
122.727922061
 30
0.0
 11
135.455844123
 21
22.7279220614
 31
0.0
  0
LINE
  8
0
 62
0
 10
61.7279220614
 20
117.491933385
 30
0.0
 11
39.7279220614
 21
117.491933385
 31
0.0
  0
LINE
  8
0
 62
0
 10
39.7279220614
 20
117.491933385
 30
0.0
 11
39.7279220614
 21
25.4919333848
 31
0.0
  0
LINE
  8
0
 62
0
 10
39.7279220614
 20
25.4919333848
 30
0.0
 11
61.7279220614
 21
25.4919333848
 31
0.0
  0
LINE
  8
0
 62
0
 10
61.7279220614
 20
25.4919333848
 30
0.0
 11
61.7279220614
 21
62.0468833848
 31
0.0
  0
LINE
  8
0
 62
0
 10
61.7279220614
 20
62.0468833848
 30
0.0
 11
83.7279220614
 21
62.0468833848
 31
0.0
  0
LINE
  8
0
 62
0
 10
83.7279220614
 20
62.0468833848
 30
0.0
 11
83.7279220614
 21
25.4919333848
 31
0.0
  0
LINE
  8
0
 62
0
 10
83.7279220614
 20
25.4919333848
 30
0.0
 11
105.727922061
 21
25.4919333848
 31
0.0
  0
LINE
  8
0
 62
0
 10
105.727922061
 20
25.4919333848
 30
0.0
 11
105.727922061
 21
117.491933385
 31
0.0
  0
LINE
  8
0
 62
0
 10
105.727922061
 20
117.491933385
 30
0.0
 11
83.7279220614
 21
117.491933385
 31
0.0
  0
LINE
  8
0
 62
0
 10
83.7279220614
 20
117.491933385
 30
0.0
 11
83.7279220614
 21
80.9369833848
 31
0.0
  0
LINE
  8
0
 62
0
 10
83.7279220614
 20
80.9369833848
 30
0.0
 11
61.7279220614
 21
80.9369833848
 31
0.0
  0
LINE
  8
0
 62
0
 10
61.7279220614
 20
80.9369833848
 30
0.0
 11
61.7279220614
 21
117.491933385
 31
0.0
  0
LINE
  8
0
 62
0
 10
39.7279220614
 20
117.491933385
 30
0.0
 11
39.7279220614
 21
25.4919333848
 31
0.0
  0
LINE
  8
0
 62
0
 10
83.7279220614
 20
62.0468833848
 30
0.0
 11
83.7279220614
 21
25.4919333848
 31
0.0
  0
LINE
  8
0
 62
0
 10
83.7279220614
 20
117.491933385
 30
0.0
 11
83.7279220614
 21
80.9369833848
 31
0.0
  0
ENDBLK
  0
ENDSEC
  0
SECTION
  2
ENTITIES
  0
INSERT
  2
PAD
  8
0
 10
0.0
 20
0.0
 30
0.0
  0
INSERT
  2
POCKET
  8
0
 10
0.0
 20
0.0
 30
0.0
  0
ENDSEC
  0
EOF
